<svg xmlns="http://www.w3.org/2000/svg" width="228.333" height="14.188" viewBox="0 0 228.333 14.188">
  <g id="frise-haut" transform="translate(-0.001 0)">
    <path id="Union_4" data-name="Union 4" d="M8029.459,2035.807h-5.436v-4.728h5.436v-4.73h-5.436v-4.73h16.31v4.73H8034.9v9.458Zm-27.183,0v-9.458H7991.4v4.73h-10.812v4.718h-5.62v-4.718h-10.751v-4.73h5.436v-4.73h38.057v4.73h5.437v-4.73h5.436v4.73h5.436v4.73h-16.309v4.728Zm-21.744-4.9v-4.558h-5.438v4.558Zm-65.24,4.9h-5.436v-4.728h5.436v-4.57h-5.509v-4.889h5.62v4.73h5.325v-4.73h5.438v9.46h-5.438v4.728Zm-32.619,0v-9.458H7871.8v-4.73h27.183v9.46h-5.436v-4.73h-5.438v9.458Zm-21.746,0h-5.437v-4.728h5.437v-9.46h5.438v14.188Zm70.772-.01v-4.889h5.62v4.889Zm-103.4,0v-4.718h-10.679v4.718H7812v-4.889h5.436v-4.558H7812v-4.73h21.745v4.73h-5.437v4.558h5.608v4.889Zm114.178-4.718v-4.73H7931.6v-4.73h16.308v9.46Zm-97.856,0v-4.73h-5.436v-4.73h16.308v4.73h-5.436v4.73Zm59.545-.172v-4.4h5.62v4.4Zm-70.248,0v-4.4h5.057v4.4Zm124.869-4.558h-5.436v-4.73h10.872v4.73Z" transform="translate(-7812 -2021.62)" fill="#141326"/>
  </g>
</svg>
