<?xml version="1.0" encoding="utf-8"?>
<!-- Generator: Adobe Illustrator 26.0.1, SVG Export Plug-In . SVG Version: 6.00 Build 0)  -->
<svg version="1.1" id="Layer_1" xmlns="http://www.w3.org/2000/svg" xmlns:xlink="http://www.w3.org/1999/xlink" x="0px" y="0px"
	 viewBox="0 0 228.33 14.19" style="enable-background:new 0 0 228.33 14.19;" xml:space="preserve">
<style type="text/css">
	.st0{fill:#FBF817;}
</style>
<g id="frise-bas" transform="translate(228.333 14.187) rotate(180)">
	<path id="Union_4" className="st0" d="M217.46,14.19h-5.44V9.46h5.44V4.73h-5.44V0h16.31v4.73h-5.43v9.46H217.46z M190.28,14.19V4.73
		H179.4v4.73h-10.81v4.72h-5.62V9.46h-10.75V4.73h5.44V0h38.06v4.73h5.44V0h5.44v4.73h5.44v4.73h-16.31v4.73H190.28z M168.53,9.29
		V4.73h-5.44v4.56H168.53z M103.29,14.19h-5.44V9.46h5.44V4.89h-5.51V0h5.62v4.73h5.33V0h5.44v9.46h-5.44v4.73L103.29,14.19z
		 M70.67,14.19V4.73H59.8V0h27.18v9.46h-5.44V4.73h-5.44v9.46H70.67z M48.93,14.19h-5.44V9.46h5.44V0h5.44v14.19H48.93z
		 M119.7,14.18V9.29h5.62v4.89H119.7z M16.3,14.18V9.46H5.62v4.72H0V9.29h5.44V4.73H0V0h21.75v4.73h-5.44v4.56h5.61v4.89H16.3z
		 M130.48,9.46V4.73H119.6V0h16.31v9.46H130.48z M32.62,9.46V4.73h-5.44V0h16.31v4.73h-5.44v4.73H32.62z M92.17,9.29v-4.4h5.62v4.4
		H92.17z M21.92,9.29v-4.4h5.06v4.4H21.92z M146.79,4.73h-5.44V0h10.87v4.73H146.79z"/>
</g>
</svg>
