<?xml version="1.0" encoding="utf-8"?>
<!-- Generator: Adobe Illustrator 26.0.1, SVG Export Plug-In . SVG Version: 6.00 Build 0)  -->
<svg version="1.1" id="Layer_1" xmlns="http://www.w3.org/2000/svg" xmlns:xlink="http://www.w3.org/1999/xlink" x="0px" y="0px"
	 viewBox="0 0 228.33 14.19" style="enable-background:new 0 0 228.33 14.19;" xml:space="preserve">
<style type="text/css">
	.st0{fill:#FBF817;}
</style>
<g id="frise-bas" transform="translate(228.333 14.187) rotate(180)">
	<path id="Union_4" className="st0" d="M10.87,0h5.44v4.73h-5.44v4.73h5.44v4.73H0V9.46h5.43V0C5.43,0,10.87,0,10.87,0z M38.05,0v9.46
		h10.88V4.73h10.81V0.01h5.62v4.72h10.75v4.73h-5.44v4.73H32.61V9.46h-5.44v4.73h-5.44V9.46h-5.44V4.73H32.6V0
		C32.6,0,38.05,0,38.05,0z M59.8,4.9v4.56h5.44V4.9H59.8z M125.04,0h5.44v4.73h-5.44V9.3h5.51v4.89h-5.62V9.46h-5.33v4.73h-5.44
		V4.73h5.44V0L125.04,0z M157.66,0v9.46h10.87v4.73h-27.18V4.73h5.44v4.73h5.44V0C152.23,0,157.66,0,157.66,0z M179.4,0h5.44v4.73
		h-5.44v9.46h-5.44V0H179.4z M108.63,0.01V4.9h-5.62V0.01H108.63z M212.03,0.01v4.72h10.68V0.01h5.62V4.9h-5.44v4.56h5.44v4.73
		h-21.75V9.46h5.44V4.9h-5.61V0.01H212.03z M97.85,4.73v4.73h10.88v4.73H92.42V4.73H97.85z M195.71,4.73v4.73h5.44v4.73h-16.31V9.46
		h5.44V4.73H195.71z M136.16,4.9v4.4h-5.62V4.9H136.16z M206.41,4.9v4.4h-5.06V4.9H206.41z M81.54,9.46h5.44v4.73H76.11V9.46H81.54z
		"/>
</g>
</svg>
