<svg id="Logo" xmlns="http://www.w3.org/2000/svg" viewBox="0 0 114.83 162.24"><defs><style>.cls-1{fill:#fff;}</style></defs><g id="d"><path id="dTop" className="cls-1" d="M51.71,1.72,105.93,56l-6.44,6.45L45.26,8.17Z" transform="translate(-0.91 -1.72)"/><path id="dBottom" className="cls-1" d="M51.71,110.15l54.22-54.24-6.44-6.45L45.26,103.7Z" transform="translate(-0.91 -1.72)"/></g><g id="r"><path id="rBottom" className="cls-1" d="M17.12,97.2l54.23,54.24-6.45,6.44L10.68,103.65Z" transform="translate(-0.91 -1.72)"/><path id="rMiddle" className="cls-1" d="M17.12,110.15,71.35,55.91,64.9,49.46,10.68,103.7Z" transform="translate(-0.91 -1.72)"/><path id="rTop" className="cls-1" d="M17.12,1.72,71.35,56,64.9,62.41,10.68,8.17Z" transform="translate(-0.91 -1.72)"/></g><g id="raphael"><path id="rR" className="cls-1" d="M8.17,106.29.91,113.55l2,2,3-3,.49.49-1.92,4,2.2,2.2,1.94-4.57a2.48,2.48,0,0,0,1.42-.13,3.84,3.84,0,0,0,1.26-.85,4,4,0,0,0,.71-1,2.56,2.56,0,0,0,.18-2.16,3,3,0,0,0-.72-1.07Zm-.05,4,.93.93c.24.24.22.49,0,.75a.47.47,0,0,1-.74,0l-.92-.93Z" transform="translate(-0.91 -1.72)"/><path id="rRA" className="cls-1" d="M18.62,116.55,8,120.61,10,122.67l.86-.37,2,2-.37.87,2.16,2.15,4.06-10.64Zm-4.85,5.81-.88-.88,1.54-.66Z" transform="translate(-0.91 -1.72)"/><path id="rRAP" className="cls-1" d="M23.91,122l-7.26,7.25,2,2,2.52-2.52.82.83a3.38,3.38,0,0,0,1.14.77,2.78,2.78,0,0,0,1.2.17,3.23,3.23,0,0,0,1.17-.36,4.36,4.36,0,0,0,1.08-.81,4.22,4.22,0,0,0,.81-1.09,2.91,2.91,0,0,0,.31-1.16,2.62,2.62,0,0,0-.21-1.16,3.35,3.35,0,0,0-.75-1.11Zm-.05,4,.82.81a.48.48,0,0,1,0,.76.7.7,0,0,1-.4.22.49.49,0,0,1-.39-.17l-.82-.81Z" transform="translate(-0.91 -1.72)"/><path id="rRAPH" className="cls-1" d="M31.06,129.18l-7.26,7.26,2,2,2.75-2.75L30,137.1l-2.75,2.75,2,2,7.26-7.25-2-2-2.57,2.57-1.42-1.43,2.56-2.56Z" transform="translate(-0.91 -1.72)"/><path id="rRAPHA" className="cls-1" d="M41.79,139.72l-10.64,4.06,2.05,2.06.87-.37,2,2-.37.86,2.15,2.15,4.06-10.64Zm-4.86,5.8-.88-.88L37.6,144Z" transform="translate(-0.91 -1.72)"/><path id="rRAPHAE" className="cls-1" d="M47.07,145.19l-7.25,7.26,4.8,4.8,2-2-2.81-2.81.71-.71,2.74,2.74,1.94-1.94-2.74-2.74.53-.53L49.8,152l2-2Z" transform="translate(-0.91 -1.72)"/><path id="rRAPHAEL" className="cls-1" d="M54.23,152.35,47,159.61,51.33,164l2-2L51,159.56l5.22-5.21Z" transform="translate(-0.91 -1.72)"/></g><g id="desitter"><path id="dD" className="cls-1" d="M54.3,112.27l7.26,7.26,2.5-2.5a4.86,4.86,0,0,0,1.24-1.89,4.08,4.08,0,0,0,.19-1.88,4.84,4.84,0,0,0-.59-1.75A7.52,7.52,0,0,0,63.77,110a7,7,0,0,0-1.51-1.13,4.68,4.68,0,0,0-1.75-.57,4.25,4.25,0,0,0-1.85.21,4.91,4.91,0,0,0-1.85,1.23Zm4,.06.63-.63a1.54,1.54,0,0,1,1.37-.53,2.75,2.75,0,0,1,1.46.87,2.78,2.78,0,0,1,.87,1.46,1.54,1.54,0,0,1-.53,1.37l-.63.63Z" transform="translate(-0.91 -1.72)"/><path id="dDE" className="cls-1" d="M62.44,104.13l7.26,7.26,4.8-4.8-2-2-2.81,2.81-.71-.71,2.74-2.74-2-2L67,104.7l-.52-.52,2.78-2.78-2-2Z" transform="translate(-0.91 -1.72)"/><path id="dDES" className="cls-1" d="M75,92.72a7.38,7.38,0,0,0-1.7.69,6.89,6.89,0,0,0-1.38,1.07A5.09,5.09,0,0,0,71,95.69a3.24,3.24,0,0,0-.41,1.24,2.61,2.61,0,0,0,.15,1.21,3,3,0,0,0,.73,1.12,2.6,2.6,0,0,0,1.41.79,3.65,3.65,0,0,0,1.55-.13,5,5,0,0,0,.72-.24l.78-.3.63-.28.31-.14a3,3,0,0,1,.49-.15.39.39,0,0,1,.39.13.41.41,0,0,1,.11.43,1.56,1.56,0,0,1-.43.63c-.15.14-.33.3-.55.47a7.82,7.82,0,0,1-.7.49c-.26.15-.52.3-.79.43a4.68,4.68,0,0,1-.79.32L76,103.93a5.18,5.18,0,0,0,1-.36A9.51,9.51,0,0,0,78,103a6.68,6.68,0,0,0,.82-.6c.24-.2.45-.39.62-.56a4,4,0,0,0,1.35-2.56A2.89,2.89,0,0,0,79.82,97a2.61,2.61,0,0,0-1.24-.75,3.1,3.1,0,0,0-1.47.06,9.62,9.62,0,0,0-1.21.41l-1.54.61a3.26,3.26,0,0,1-.45.14.37.37,0,0,1-.37-.11.41.41,0,0,1-.11-.4,1.39,1.39,0,0,1,.37-.55,4.12,4.12,0,0,1,.53-.44,5.93,5.93,0,0,1,.65-.4q.34-.19.72-.36c.25-.1.48-.19.7-.26Z" transform="translate(-0.91 -1.72)"/><path id="dDESI" className="cls-1" d="M76.92,89.66l7.25,7.26,2-2-7.25-7.25Z" transform="translate(-0.91 -1.72)"/><path id="dDESIT" className="cls-1" d="M81,85.56l2,2,1.67-1.67,5.22,5.22,2-2-5.22-5.22,1.68-1.68-2-2Z" transform="translate(-0.91 -1.72)"/><path id="dDESITT" className="cls-1" d="M88.16,78.42l2,2,1.67-1.67L97.08,84l2-2L93.86,76.8l1.68-1.68-2-2Z" transform="translate(-0.91 -1.72)"/><path id="dDESITTE" className="cls-1" d="M95.6,71l7.26,7.26,4.8-4.8-2-2-2.81,2.81-.71-.72,2.74-2.74L102.9,68.8l-2.74,2.74L99.63,71l2.78-2.78-2-2Z" transform="translate(-0.91 -1.72)"/><path id="dDESITTER" className="cls-1" d="M102.76,63.81,110,71.07l2-2-3-2.95.5-.49,4,1.92,2.2-2.2-4.57-1.94A2.39,2.39,0,0,0,111,62a3.84,3.84,0,0,0-.85-1.26,4.11,4.11,0,0,0-1-.72,2.71,2.71,0,0,0-1.06-.32,2.62,2.62,0,0,0-1.1.15,2.9,2.9,0,0,0-1.06.72Zm4,0,.93-.93c.23-.24.48-.22.75,0a.45.45,0,0,1,0,.73l-.93.93Z" transform="translate(-0.91 -1.72)"/></g></svg>