<?xml version="1.0" encoding="utf-8"?>
<!-- Generator: Adobe Illustrator 24.1.2, SVG Export Plug-In . SVG Version: 6.00 Build 0)  -->
<svg version="1.1" id="logoMHSC" xmlns="http://www.w3.org/2000/svg" xmlns:xlink="http://www.w3.org/1999/xlink" x="0px" y="0px"
	 viewBox="0 0 400 400" style="enable-background:new 0 0 400 400;" xml:space="preserve">
<style type="text/css">
	.st0{fill:#FFFFFF;}
	.st1{fill:#002E6D;}
	.st2{fill:#FF5100;}
	.st3{fill:#16417D;}
</style>
<path id="logo-background" class="st0" d="M6.9,200.2C6.9,93.6,93.6,6.9,200.2,6.9c106.6,0,193.3,86.7,193.3,193.3
	c0,106.6-86.7,193.3-193.3,193.3C93.6,393.5,6.9,306.8,6.9,200.2"/>
<g id="center">
	<g id="layer1_4_" transform="translate(-330.35839,104.7105)">
		<g id="g3029_4_" transform="matrix(23.962396,0,0,23.962396,-7584.6024,-11396.17)">
			<path id="external-border" class="st1" d="M338.7,471.2c-4.6,0-8.3,3.7-8.3,8.3s3.7,8.3,8.3,8.3c4.6,0,8.3-3.7,8.3-8.3
				S343.3,471.2,338.7,471.2z M338.7,487.6c-4.4,0-8.1-3.6-8.1-8.1s3.6-8.1,8.1-8.1c4.4,0,8.1,3.6,8.1,8.1
				C346.7,484,343.1,487.6,338.7,487.6z"/>
			<path class="st1" d="M336.7,483.9l6.5-5.2l-0.2,2.1l-4.4,3.5L336.7,483.9 M343,477l-0.9-1.2l-7.8,6.2l0.9,1.2L343,477
				 M340.7,475.1c-0.6-0.3-1.3-0.4-1.7-0.5l-5.3,4.2l0.1,0.1v1.7L340.7,475.1"/>
			<path class="st2" d="M338.7,473.9c-3.1,0-5.7,2.5-5.7,5.7c0,3.1,2.5,5.7,5.7,5.7c3.1,0,5.7-2.5,5.7-5.7S341.8,473.9,338.7,473.9z
				 M342.9,479.6c0,2.3-1.9,4.3-4.3,4.3c-2.3,0-4.3-1.9-4.3-4.3c0-2.3,1.9-4.3,4.3-4.3C341,475.3,342.9,477.2,342.9,479.6z"/>
		</g>
	</g>
</g>
<g id="nom">
	<path class="st1" d="M22.6,169.8c-0.4-0.1-0.7-0.5-0.5-1.1l0.2-0.8c0.1-0.4,0.4-0.6,0.7-0.7l25.9-5c0-0.1,0-0.1,0-0.1l-20.5-16.6
		c-0.3-0.2-0.4-0.5-0.3-1l0.2-0.8c0.1-0.5,0.6-0.7,1-0.7l34.5,2.5c0.7,0,1.1,0.5,0.9,1.2l-1.1,4.5c-0.1,0.4-0.6,0.7-1,0.7l-19.4-1.8
		c0,0,0,0.1,0,0.1l17.2,13.4c0.3,0.2,0.4,0.5,0.3,1l-0.2,0.9c-0.1,0.4-0.4,0.6-0.7,0.7l-21.5,3.9c0,0,0,0.1,0,0.1l17.9,7.5
		c0.3,0.1,0.6,0.6,0.5,1.1l-1.1,4.4c-0.2,0.6-0.7,0.9-1.4,0.7L22.6,169.8z"/>
	<path class="st1" d="M43.9,110.2c5.1-8.8,16.2-11.7,24.9-6.7c8.8,5.1,11.7,16.1,6.7,24.9c-5.1,8.8-16.1,11.7-24.8,6.7
		C41.9,130,38.8,118.9,43.9,110.2z M69.8,125.1c3.2-5.5,1.3-12.7-4.2-15.9c-5.5-3.2-12.8-1.3-16,4.3c-3.2,5.5-1.2,12.7,4.3,15.9
		C59.5,132.5,66.6,130.6,69.8,125.1z"/>
	<path class="st1" d="M62.3,84.4c-0.4-0.4-0.3-1,0-1.3l0.5-0.5c0.2-0.3,0.5-0.4,0.9-0.4L93.9,83l0.1-0.1L79.1,68.2
		c-0.4-0.4-0.4-1,0-1.4l3.3-3.3c0.4-0.4,1-0.4,1.4,0l24.2,24c0.4,0.4,0.3,1,0,1.3l-0.5,0.5c-0.2,0.3-0.5,0.4-0.9,0.4l-30.9-1.4
		l-0.1,0.1l15.5,15.3c0.4,0.4,0.4,1,0,1.4l-3.2,3.3c-0.4,0.4-1,0.4-1.4,0L62.3,84.4z"/>
	<path class="st1" d="M102.7,56.2l-6.5,4.2c-0.5,0.3-1.1,0.1-1.3-0.3l-2.3-3.5c-0.3-0.4-0.2-1,0.3-1.3l18.5-12.1
		c0.5-0.3,1.1-0.1,1.3,0.3L115,47c0.3,0.4,0.2,1-0.3,1.3l-6.5,4.2l15.5,23.8c0.3,0.4,0.1,1.1-0.3,1.3l-3.9,2.6
		c-0.4,0.3-1.1,0.1-1.3-0.3L102.7,56.2z"/>
	<path class="st1" d="M122,38.7c-0.2-0.5,0-1,0.5-1.3l11-4.6c5.8-2.4,12.4,0.3,14.8,6c2.4,5.8-0.4,12.5-6.1,14.9l-5.8,2.4l4.6,11
		c0.2,0.5-0.1,1.1-0.5,1.3l-4.3,1.8c-0.5,0.2-1.1-0.1-1.3-0.5L122,38.7z M139.7,48.2c2.6-1.1,3.8-4,2.6-6.8
		c-1.1-2.6-3.9-3.7-6.5-2.6l-5.6,2.3l3.9,9.4L139.7,48.2z"/>
	<path class="st1" d="M154.7,26.6c-0.1-0.5,0.2-1,0.8-1.1l20.2-4.1c0.5-0.1,1,0.3,1.1,0.8l0.8,4.1c0.1,0.5-0.2,1-0.8,1.1l-14.7,3
		l1.6,8.1l12.3-2.5c0.5-0.1,1,0.3,1.1,0.8l0.8,4.1c0.1,0.5-0.3,1-0.8,1.1l-12.3,2.5l1.8,8.7l14.7-3c0.5-0.1,1,0.3,1.1,0.8l0.8,4.1
		c0.1,0.5-0.2,1-0.8,1.1l-20.2,4.1c-0.5,0.1-1-0.3-1.1-0.8L154.7,26.6z"/>
	<path class="st1" d="M188.1,21.3c0-0.5,0.4-1,0.9-1l4.7-0.1c0.5,0,1,0.4,1,0.9l0.6,28.4l12.9-0.3c0.6,0,1,0.4,1,0.9l0.1,4.2
		c0,0.5-0.4,1-0.9,1l-18.5,0.4c-0.6,0-1-0.4-1-0.9L188.1,21.3z"/>
	<path class="st1" d="M217.9,21.7c0.1-0.5,0.5-0.9,1.1-0.8l4.6,0.7c0.5,0.1,0.9,0.6,0.8,1.1l-4.1,28.1l12.8,1.8
		c0.6,0.1,0.9,0.6,0.8,1.1l-0.6,4.1c-0.1,0.5-0.5,0.9-1.1,0.8l-18.4-2.7c-0.6-0.1-0.9-0.6-0.8-1.1L217.9,21.7z"/>
	<path class="st1" d="M246.4,26.9c0.1-0.5,0.7-0.8,1.2-0.7l4.5,1.3c0.5,0.1,0.8,0.7,0.7,1.2L243.6,61c-0.1,0.5-0.7,0.8-1.2,0.7
		l-4.5-1.3c-0.5-0.1-0.8-0.7-0.7-1.2L246.4,26.9z"/>
	<path class="st1" d="M264.6,32.5c0.2-0.5,0.8-0.7,1.3-0.5l18.8,8.5c0.5,0.2,0.7,0.8,0.5,1.3l-1.7,3.8c-0.2,0.5-0.8,0.7-1.3,0.5
		l-13.7-6.2l-3.4,7.6l11.4,5.1c0.5,0.2,0.7,0.8,0.5,1.3l-1.7,3.8c-0.2,0.5-0.8,0.7-1.3,0.5l-11.4-5.1l-3.6,8.1l13.7,6.2
		c0.5,0.2,0.7,0.8,0.5,1.3l-1.7,3.8c-0.2,0.5-0.8,0.7-1.3,0.5l-18.8-8.5c-0.5-0.2-0.7-0.8-0.5-1.3L264.6,32.5z"/>
	<path class="st1" d="M295.6,47.8c0.3-0.4,0.9-0.5,1.3-0.2l11.7,8.5c4.9,3.6,6.1,10.4,2.5,15.3c-2.7,3.8-7.5,5-12.1,3.9l-1.9,14.5
		c-0.1,0.7-0.9,1.2-1.6,0.7l-4.3-3.1c-0.4-0.3-0.4-0.6-0.4-0.8l2.4-14.8l-4.6-3.3l-7.6,10.5c-0.3,0.4-0.9,0.5-1.3,0.2l-3.8-2.7
		c-0.5-0.3-0.5-0.9-0.2-1.3L295.6,47.8z M298.7,68.8c2.2,1.6,5.4,1.1,7.1-1.2c1.6-2.2,1-5.3-1.2-6.9l-6.7-4.8L292,64L298.7,68.8z"/>
	<path class="st1" d="M336.4,82.5c0.4-0.3,1-0.2,1.3,0.2l2.8,3.8c0.3,0.4,0.2,1-0.2,1.3l-10.8,7.9l9.8,13.3l10.8-7.9
		c0.4-0.3,1-0.2,1.3,0.2l2.8,3.8c0.3,0.4,0.2,1-0.2,1.3l-27.1,19.8c-0.4,0.3-1,0.2-1.3-0.2l-2.8-3.8c-0.3-0.4-0.2-1,0.2-1.3
		l11.3-8.3l-9.8-13.3l-11.3,8.3c-0.4,0.3-1,0.2-1.3-0.2l-2.8-3.8c-0.3-0.4-0.2-1,0.2-1.3L336.4,82.5z"/>
	<path class="st1" d="M331.6,130.3c0.2-0.6,0.4-0.9,1.3-0.8l3.6,0.4c0.8,0.1,1.2,0.9,1,1.4c-0.6,2.5-1.1,5.3,0.2,8.3
		c1.1,2.4,3.4,3.5,5.4,2.6c2.4-1,3.1-3.8,3-8.3c-0.2-5.1,0.7-10.7,6.2-13.1c4.1-1.8,10.2-0.9,13.5,6.5c2.1,4.7,1.3,9.4,1,10.6
		c-0.1,0.6-0.8,1.1-1.4,1l-3.4-0.6c-0.7-0.1-1.4-0.7-1.3-1.4c0.4-2.5,0.8-5-0.3-7.6c-1.2-2.6-3.3-3.4-5-2.6c-2.2,1-2.9,3.3-2.8,7.8
		c0.2,5.3-0.2,11.7-6.2,14.3c-4.8,2.1-11-0.1-13.9-6.6C329.9,136.3,331,132.2,331.6,130.3z"/>
	<path class="st1" d="M377.8,165.2c1.1,5,0.3,9-2,13c-0.3,0.5-0.9,0.7-1.4,0.3l-3.8-2.4c-0.5-0.3-0.6-0.8-0.3-1.2
		c1.4-2.5,1.9-5.5,1.3-8.3c-1.4-6.3-7.7-9.9-13.9-8.6c-6.2,1.3-10.4,7.2-9.1,13.5c0.6,3,2.3,5.3,4.4,7c0.4,0.3,0.5,0.9,0.3,1.2
		l-2.5,3.8c-0.3,0.5-0.9,0.5-1.3,0.2c-4-2.7-6.4-6.6-7.4-11c-2.1-9.9,4-19.6,13.9-21.7C366,149,375.7,155.3,377.8,165.2z"/>
</g>
<g id="date">
	<path class="st1" d="M162.1,358.5l-4,0.9c-0.4,0.1-0.9-0.2-0.9-0.6l-0.3-2.2c0-0.5,0-0.7,0.4-1l5.6-4.8c0.4-0.4,0.9-0.6,1.5-0.6
		h2.3c0.5,0,0.8,0.4,0.8,0.8v29.2c0,0.5-0.4,0.9-0.8,0.9H163c-0.5,0-0.9-0.4-0.9-0.9V358.5z"/>
	<path class="st1" d="M178.5,377.3c2.1-0.7,8.6-3.5,10-8.5c-0.8,0.4-3,1.3-5.2,1.3c-4.5,0-9.3-3.4-9.3-9.9c0-5.7,4.7-10.4,10.3-10.4
		c7.1,0,10.8,5.7,10.8,12.5c0,13.3-11.3,18.4-15.1,19.6c-0.7,0.2-1.1,0-1.3-0.6l-1.1-2.7C177.4,378.1,177.6,377.6,178.5,377.3z
		 M189.7,361.7c0-3.1-1.6-6.8-5.3-6.8c-2.9,0-5.2,2.5-5.2,5.4c0,2.9,2.3,5.3,5.3,5.3C187.4,365.6,189.2,363.3,189.7,361.7z"/>
	<path class="st1" d="M212.2,355.1h-12c-0.4,0-0.8-0.4-0.8-0.9v-3.2c0-0.4,0.4-0.8,0.8-0.8h18.9c0.4,0,0.9,0.4,0.9,0.8
		c0,0.2,0,0.3-0.2,0.7l-13.4,28.2c-0.4,0.7-0.8,1.2-1.5,1.2h-3.4c-0.5,0-1.1-0.1-1.1-0.9c0-0.4,0-0.6,0.2-0.9L212.2,355.1
		L212.2,355.1z"/>
	<path class="st1" d="M219.8,373.7v-2.9c0-0.6,0.2-1.1,0.6-1.5l15.6-19c0.3-0.4,0.6-0.5,1.1-0.5h2.2c0.5,0,0.9,0.4,0.9,0.9v19.2h3.6
		c0.5,0,0.9,0.4,0.9,0.8v3c0,0.4-0.4,0.9-0.9,0.9h-3.6l0,5.7c0,0.5-0.4,0.9-0.9,0.9h-3.8c-0.4,0-0.9-0.4-0.9-0.9v-5.7h-14
		C220.2,374.6,219.8,374.1,219.8,373.7z M225.9,370h9v-11h-0.1L225.9,370L225.9,370z"/>
	<path id="path1711_2_" class="st3" d="M266.7,358.7l30.8-6.6l9.7-29.9l-30.7,6.6L266.7,358.7"/>
	<path id="path1711_1_" class="st3" d="M134.3,358.7l-30.8-6.6l-9.7-29.9l30.7,6.6L134.3,358.7"/>
</g>
</svg>
